<svg version="1.1" id="Layer_1" xmlns="http://www.w3.org/2000/svg" xmlns:xlink="http://www.w3.org/1999/xlink" x="0px" y="0px"
	 width="100%" viewBox="0 0 512 512" enable-background="new 0 0 512 512" xml:space="preserve">
<path fill="#FFFFFF" opacity="1.000000" stroke="none" 
	d="
M1.358034,362.063171 
	C1.000000,243.072723 1.022115,124.145424 0.896510,5.218281 
	C0.892618,1.533480 1.751982,0.905793 5.276719,0.909114 
	C121.871971,1.018965 238.467331,1.000000 355.531342,1.000000 
	C357.104706,3.930839 354.724182,3.853615 353.112457,4.158085 
	C337.260712,7.152704 322.354156,12.579294 AA
	C301.165283,25.569040 293.934814,30.384439 287.800995,36.498119 
	C245.849304,78.312103 203.955276,120.184174 161.886398,162.393265 
	C119.715729,204.394608 77.621490,245.967896 36.264610,288.260193 
	C17.616684,307.329895 7.370563,331.199921 3.289938,357.605957 
	C3.043106,359.203247 3.378536,361.016632 1.358034,362.063171 
z"/>
<path fill="#E5E5E5" opacity="1.000000" stroke="none" 
	d="
M161.011932,162.017334 
	C203.432327,119.160126 245.473877,76.229355 288.547211,34.360050 
	C306.319153,17.084900 328.693390,7.068122 353.401947,3.008093 
	C354.390167,2.845708 355.424744,2.938452 355.933533,1.382272 
	C370.354218,1.000000 384.708466,1.000000 399.531342,1.000000 
	C401.934418,2.808480 404.448792,1.847726 406.664856,2.358269 
	C429.203491,7.550789 449.498901,17.177940 466.866577,32.610416 
	C469.073944,34.571808 471.882202,35.933617 473.423218,39.077477 
	C473.728394,41.959175 471.838104,43.300373 470.345001,44.794285 
	C400.789459,114.386154 331.216003,183.960098 261.630005,253.521500 
	C260.228394,254.922607 258.906036,256.492615 256.389862,256.781921 
	C253.744736,256.308594 252.387604,254.534912 250.875702,253.024429 
	C222.054932,224.230515 193.249176,195.421585 164.452087,166.603989 
	C163.171173,165.322159 161.675491,164.189499 161.011932,162.017334 
z"/>
<path fill="#17ACE8" opacity="1.000000" stroke="none" 
	d="
M160.696808,161.870941 
	C162.339401,162.857697 163.776764,163.979172 165.057556,165.257538 
	C195.234619,195.377380 225.394775,225.514160 255.857178,255.801392 
	C256.269470,256.166870 256.382629,256.378784 256.534271,256.949158 
	C256.068390,259.591370 254.239716,260.903259 252.731018,262.412567 
	C183.734116,331.436981 114.723434,400.447571 45.698738,469.444183 
	C44.072884,471.069366 42.661983,473.042267 39.822376,473.556091 
	C34.565384,471.475067 32.168819,466.838593 29.093466,463.054352 
	C15.682243,446.552002 6.875712,427.772186 2.488626,406.958740 
	C1.634869,402.908264 1.446932,398.758179 1.226014,394.306580 
	C1.000000,383.645782 1.000000,373.291534 1.000000,362.468658 
	C2.329808,356.044098 3.679016,350.092468 4.985662,344.131500 
	C8.427345,328.430359 15.501559,314.398865 24.339209,301.096649 
	C31.836243,289.812317 41.753971,280.780457 51.210373,271.310455 
	C87.590897,234.877686 124.012405,198.485840 160.696808,161.870941 
z"/>
<path fill="#FCBF29" opacity="1.000000" stroke="none" 
	d="
M512.775146,361.698181 
	C513.000000,372.354218 513.000000,382.708466 513.000000,393.531342 
	C512.049438,405.265472 509.818726,416.202545 505.709503,426.810913 
	C494.368958,456.087646 475.159485,478.699982 448.507202,495.067657 
	C435.940308,502.785217 422.353241,508.098755 407.962921,511.300568 
	C403.254395,512.348206 398.426025,512.445862 393.307892,512.773682 
	C388.310760,513.000000 383.621490,513.000000 378.466125,513.000000 
	C375.669861,510.090485 376.409576,506.628723 376.407928,503.367218 
	C376.367798,424.398285 376.363434,345.429291 376.400116,266.460327 
	C376.403442,259.304169 375.988617,252.135895 376.856567,244.544327 
	C379.385651,240.303802 383.252441,241.505432 386.471222,241.772980 
	C401.571472,243.028152 416.271576,246.151367 430.299194,252.093628 
	C435.183594,254.162720 439.929932,256.526703 445.167664,258.779358 
	C470.779785,273.705078 489.942261,294.132385 502.162384,320.743805 
	C508.063568,333.594574 512.746582,346.912872 512.775146,361.698181 
z"/>
<path fill="#FEDB41" opacity="1.000000" stroke="none" 
	d="
M377.768036,242.833008 
	C378.015045,332.780243 378.007507,422.421448 378.000000,512.531372 
	C373.310760,513.000000 368.621490,513.000000 363.466125,513.000000 
	C355.491241,512.019287 347.906830,511.734192 340.558258,509.487122 
	C305.173096,498.666992 277.736023,477.837677 259.172424,445.138519 
	C251.576401,429.798157 245.571243,414.379791 243.181091,397.649200 
	C239.505295,371.919220 243.008972,347.304901 253.211685,323.454132 
	C259.857819,307.917633 269.479095,294.495605 281.190155,281.943970 
	C290.706421,272.953491 300.663147,265.225494 311.720245,258.917603 
	C329.858734,248.569901 349.537994,243.544464 370.162964,241.750183 
	C372.606842,241.537552 375.169647,241.288605 377.768036,242.833008 
z"/>
<path fill="#D9D9D9" opacity="1.000000" stroke="none" 
	d="
M378.479858,243.081512 
	C344.232697,243.107391 314.752960,254.577682 289.180756,276.453278 
	C287.038696,278.285706 284.977692,280.212921 282.557343,282.205383 
	C280.707916,282.752075 279.712891,281.789307 278.789154,280.880188 
	C271.636749,273.840515 264.511749,266.772919 257.511871,259.580780 
	C256.932861,258.985901 256.504059,258.284454 256.261902,257.097748 
	C256.160675,256.753937 256.155640,256.354431 256.155975,256.154694 
	C258.095306,255.976730 259.039948,254.445831 260.187347,253.298798 
	C330.599365,182.907455 400.999969,112.504723 471.397369,42.098793 
	C471.866394,41.629745 472.276733,41.102013 472.857239,40.301285 
	C475.240204,39.436085 476.343323,41.131432 477.529510,42.425724 
	C494.653046,61.109257 506.204437,82.694153 511.480896,107.571671 
	C511.965057,109.854462 511.535706,112.243195 512.754639,114.714333 
	C513.000000,116.714355 513.000000,118.428719 513.000000,120.571533 
	C512.865784,121.166664 512.731628,121.333336 512.798706,121.750000 
	C513.000000,131.354233 513.000000,140.708450 513.000000,150.531342 
	C512.865784,151.166672 512.731628,151.333328 512.798706,151.750000 
	C513.000000,153.388885 513.000000,154.777786 513.000000,156.583344 
	C511.041626,159.279724 512.221863,162.122955 511.643707,164.675278 
	C505.931091,189.893509 494.444733,212.036011 476.501404,230.693985 
	C468.095673,239.434494 459.384094,247.881042 450.795349,256.445007 
	C449.507874,257.728760 448.337494,259.167267 446.262177,260.022095 
	C443.726624,260.404663 442.091888,259.102753 440.335022,258.213348 
	C421.032501,248.440842 400.633301,243.114685 378.479858,243.081512 
z"/>
<path fill="#1689FC" opacity="1.000000" stroke="none" 
	d="
M256.008667,257.074585 
	C264.646332,265.143127 273.132019,273.532288 281.926636,282.118042 
	C274.891876,291.315613 267.066711,299.939606 261.376404,310.196442 
	C239.058075,350.425354 237.073212,391.635681 255.292191,433.836151 
	C256.804321,437.338654 258.620819,440.709839 260.398529,444.499969 
	C260.367981,446.437531 259.577698,447.691589 258.475555,448.751312 
	C244.230225,462.447937 231.449936,477.711578 215.274307,489.344177 
	C199.937454,500.373535 182.909592,507.642517 164.478577,511.574127 
	C160.282852,512.469116 155.917770,512.547668 151.299332,512.775635 
	C141.312439,513.000000 131.624878,513.000000 121.468658,513.000000 
	C114.165710,511.911896 107.218719,511.905548 100.446754,510.014587 
	C78.899689,503.997925 59.834839,493.601715 43.305061,478.549316 
	C41.844231,477.219025 40.273270,475.908112 39.859116,473.442444 
	C41.064186,472.103485 42.278263,471.221527 43.326469,470.173615 
	C113.402336,400.122131 183.465225,330.057678 253.522797,259.987885 
	C254.343811,259.166718 255.080566,258.261292 256.008667,257.074585 
z"/>
<path fill="#FFFFFF" opacity="1.000000" stroke="none" 
	d="
M151.468658,513.000000 
	C158.410873,510.848053 166.159027,510.344055 173.575775,508.069031 
	C191.675369,502.517273 208.245270,494.307709 222.679901,481.870758 
	C235.892975,470.486359 247.504364,457.492279 260.260803,445.134705 
	C267.925293,458.656250 277.854645,470.308868 289.764832,480.511353 
	C298.459137,487.959076 307.711395,494.444183 317.954437,499.388306 
	C332.061096,506.197327 346.830353,511.016357 362.789368,512.647949 
	C292.645782,513.000000 222.291550,513.000000 151.468658,513.000000 
z"/>
<path fill="#FFFFFF" opacity="1.000000" stroke="none" 
	d="
M446.059784,260.396729 
	C455.804596,250.014084 465.849731,240.070709 475.586212,229.833755 
	C488.749451,215.993805 498.977478,200.293869 505.153412,182.058212 
	C507.809174,174.216446 510.551727,166.444031 511.223724,158.113983 
	C511.252655,157.755341 511.872192,157.444366 512.608276,157.055603 
	C513.000000,225.020889 513.000000,293.041779 513.000000,361.531342 
	C511.012848,355.355804 510.311249,348.443298 508.485687,341.731445 
	C503.597504,323.760010 495.156372,307.727203 483.680786,293.182831 
	C473.259460,279.974670 460.475128,269.493683 446.059784,260.396729 
z"/>
<path fill="#FFFFFF" opacity="1.000000" stroke="none" 
	d="
M513.000000,114.531342 
	C511.503143,114.959572 511.208862,114.020470 510.985321,112.713692 
	C506.727051,87.820023 496.568817,65.749054 479.508667,46.966297 
	C477.513733,44.769943 476.083527,42.067497 473.302612,40.145256 
	C464.937164,31.593256 455.719635,24.665762 445.650604,18.868559 
	C431.915833,10.960854 417.352722,5.295647 401.611511,2.875668 
	C401.074402,2.793093 400.623871,2.147632 400.066467,1.382271 
	C436.429535,1.000000 472.859222,1.049867 509.288239,0.913086 
	C512.485474,0.901082 513.084534,1.731840 513.074829,4.774323 
	C512.958984,41.203487 513.000000,77.633148 513.000000,114.531342 
z"/>
<path fill="#FFFFFF" opacity="1.000000" stroke="none" 
	d="
M393.468658,513.000000 
	C400.276947,510.836060 407.886871,510.329285 415.204590,508.152679 
	C433.645203,502.667725 450.190399,493.997803 465.008301,481.632965 
	C480.312164,468.862610 492.044556,453.477417 500.641144,435.667175 
	C506.930756,422.636322 510.665527,408.785522 512.640930,394.193329 
	C513.000000,432.429413 512.952637,470.858948 513.086731,509.287903 
	C513.097900,512.485352 512.267944,513.083679 509.225311,513.074646 
	C470.796234,512.961060 432.366730,513.000000 393.468658,513.000000 
z"/>
<path fill="#FFFFFF" opacity="1.000000" stroke="none" 
	d="
M39.618206,472.928528 
	C51.501705,485.127197 64.904228,494.403809 80.253891,501.230865 
	C91.377129,506.178101 102.856346,509.451660 114.682762,511.824707 
	C116.616508,512.212708 118.645981,512.123596 120.815598,512.627502 
	C82.237869,513.000000 43.475578,512.953308 4.713906,513.086365 
	C1.521069,513.097290 0.915779,512.274231 0.924944,509.227142 
	C1.039528,471.130798 1.000000,433.033997 1.000002,394.468658 
	C2.662107,401.186188 4.091245,408.435974 6.031799,415.546173 
	C11.031490,433.865082 19.665596,450.306122 32.164448,464.661438 
	C34.533928,467.382812 36.926807,470.083801 39.618206,472.928528 
z"/>
<path fill="#FFFFFF" opacity="1.000000" stroke="none" 
	d="
M513.000000,121.750000 
	C512.772705,121.771530 512.186951,121.693184 512.827026,121.086945 
	C513.000000,121.000000 513.000000,121.500000 513.000000,121.750000 
z"/>
<path fill="#FFFFFF" opacity="1.000000" stroke="none" 
	d="
M513.000000,151.750000 
	C512.811218,151.837723 512.617126,151.680496 512.445557,151.501678 
	C512.434204,151.489838 512.594299,151.313492 512.837341,151.106827 
	C513.000000,151.000000 513.000000,151.500000 513.000000,151.750000 
z"/>
</svg>